<?xml version="1.0" encoding="utf-8"?>
<!-- Generator: Adobe Illustrator 23.0.0, SVG Export Plug-In . SVG Version: 6.00 Build 0)  -->
<svg version="1.1" id="Layer_1" xmlns="http://www.w3.org/2000/svg" xmlns:xlink="http://www.w3.org/1999/xlink" x="0px" y="0px"
	 viewBox="0 0 1348.31 654.89" style="enable-background:new 0 0 1348.31 654.89;" xml:space="preserve">
<style type="text/css">
	.st0{fill:#8ACB42;}
	.st1{fill:#18254E;}
	.st2{fill:#FFFFFF;}
</style>
<g>
	<path class="st0" d="M484.34,96.7c2.65-10.22,5.31-20.44,7.96-30.66c-13.57-4-27.13-8-40.7-12c-4.52,9.43-9.04,18.87-13.57,28.3
		C453.48,87.13,468.91,91.92,484.34,96.7z"/>
	<path class="st0" d="M403.1,76.09c-0.27-10.56-0.54-21.11-0.8-31.67c-14.14-0.1-28.28-0.2-42.43-0.31
		c-1.72,10.27-3.45,20.53-5.17,30.8C370.83,75.31,386.96,75.7,403.1,76.09z"/>
	<path class="st0" d="M322.1,81.34c-3.44-9.98-6.88-19.97-10.32-29.95c-14.3,3.43-28.6,6.86-42.91,10.3
		c2.03,10.54,4.05,21.08,6.08,31.63C290.67,89.32,306.39,85.33,322.1,81.34z"/>
	<path class="st0" d="M249.04,103.87c-8.27-8.49-16.54-16.98-24.81-25.46c-11.51,7.71-23.03,15.41-34.54,23.12
		c4.95,9.32,9.9,18.64,14.85,27.96C219.38,120.94,234.21,112.41,249.04,103.87z"/>
	<path class="st0" d="M150.43,187.61c-8.8-7.88-17.6-15.77-26.4-23.65c9.28-10.67,18.56-21.34,27.85-32.01
		c9.95,6.16,19.9,12.33,29.85,18.49C171.3,162.83,160.87,175.22,150.43,187.61z"/>
	<path class="st0" d="M115.09,255.43c-10.43-5.39-20.87-10.78-31.3-16.17c5.39-12.52,10.78-25.04,16.17-37.57
		c11.09,3.61,22.17,7.22,33.26,10.83C127.17,226.83,121.13,241.13,115.09,255.43z"/>
	<path class="st0" d="M105.7,341.52c-13.23-2.09-26.45-4.17-39.68-6.26c0.88-13.22,1.76-26.43,2.64-39.65c12.57-1,25.13-2,37.7-3
		C106.13,308.91,105.91,325.22,105.7,341.52z"/>
	<path class="st0" d="M120.3,416.13c-13.39,1.57-26.78,3.13-40.17,4.7c-3.48-12.52-6.96-25.04-10.43-37.57
		c12.37-4.61,24.74-9.22,37.11-13.83C111.3,385,115.8,400.56,120.3,416.13z"/>
	<path class="st0" d="M161.96,476.61c-13.34,6.28-26.69,12.57-40.03,18.85c-7.71-10.88-15.42-21.75-23.14-32.63
		c12.98-8.77,25.97-17.54,38.95-26.31C145.82,449.88,153.89,463.25,161.96,476.61z"/>
	<path class="st0" d="M213.41,532.52c-9.93,8.36-19.85,16.71-29.78,25.07c-10.5-8.54-21-17.08-31.5-25.63
		c8.12-10.04,16.24-20.08,24.35-30.12C188.79,512.06,201.1,522.29,213.41,532.52z"/>
	<path class="st0" d="M283.48,565.61c-8.33,11.22-16.65,22.43-24.98,33.65c-12.17-5.94-24.33-11.87-36.5-17.81
		c5.63-11.62,11.25-23.24,16.88-34.86C253.75,552.93,268.61,559.27,283.48,565.61z"/>
	<path class="st0" d="M362.91,579.7c-4.05,13.21-8.11,26.42-12.16,39.63c-13.43-1.66-26.86-3.33-40.28-4.99
		c1.57-13.89,3.14-27.78,4.71-41.68C331.09,575,347,577.35,362.91,579.7z"/>
	<path class="st0" d="M436.39,571c0.72,14.12,1.45,28.23,2.17,42.35c-12.87,2.12-25.74,4.23-38.61,6.35
		c-3.87-13.72-7.74-27.45-11.61-41.17C404.36,576.01,420.38,573.51,436.39,571z"/>
	<path class="st0" d="M507.64,542.74c4.38,13.44,8.76,26.88,13.14,40.31c-11.87,5.4-23.74,10.8-35.62,16.2
		c-6.57-11.19-13.13-22.38-19.7-33.58C479.52,558.04,493.58,550.39,507.64,542.74z"/>
</g>
<path class="st1" d="M433.59,492.83c-19.43,6.77-40.41,10.47-62.3,10.47c-100.4,0-181.8-77.79-181.8-173.75
	s81.39-173.75,181.8-173.75c23.72,0,46.38,4.35,67.16,12.25h35.7C444.13,150.27,408.74,140,370.83,140
	c-108.54,0-196.52,84.09-196.52,187.83s87.99,187.83,196.52,187.83c34.04,0,66.05-8.27,93.97-22.83H433.59z"/>
<path class="st0" d="M521.77,493c-40.23,33.37-92.86,53.59-150.46,53.59c-126.4,0-228.87-97.33-228.87-217.4
	S244.9,111.8,371.31,111.8c58.37,0,111.63,20.77,152.06,54.94h58.24C532.11,109.96,457,73.74,372.9,73.74
	c-149.05,0-269.88,113.76-269.88,254.09S223.84,581.91,372.9,581.91c82.07,0,155.57-34.49,205.07-88.91H521.77z"/>
<g>
	<path class="st1" d="M633.99,507.18v41.62h39.22v8.78h-53.6v-50.4H633.99z"/>
	<path class="st1" d="M829.32,548.08h-39.88l-6.54,9.5h-15.58l34.21-50.4h15.69l34.21,50.4h-15.69L829.32,548.08z M809.38,517.76
		l-14.16,21.46h28.33L809.38,517.76z"/>
	<path class="st1" d="M1015.18,521.8c0,3.89-2.83,7.63-9.91,9.72c8.93,1.8,12.2,8.06,12.2,11.23c0,11.23-12.75,14.83-28.54,14.83
		c-12.09,0-24.08,0-36.17,0v-50.4c11.98,0,24.08,0,36.17,0C1003.96,507.18,1015.18,511.64,1015.18,521.8z M966.91,527.41h22.01
		c9.04,0,11.98-2.52,11.98-5.4c0-2.3-2.83-6.19-11.98-6.19h-22.01V527.41z M966.91,548.73h22.01c5.88,0,14.27-1.3,14.27-6.05
		c0-4.54-8.39-6.91-14.27-6.91h-22.01V548.73z"/>
	<path class="st1" d="M1168.78,519.35c-2.61-2.88-9.8-5.62-18.08-5.62c-10.68,0-15.8,2.95-15.8,6.7c0,4.39,7.84,5.62,17,6.34
		c15.91,1.3,30.72,4.03,30.72,16.06c0,11.23-15.04,16.06-32.03,16.06c-15.58,0-27.56-3.17-33.23-12.38l11.98-4.1
		c3.38,5.54,12.2,7.99,21.46,7.99c9.04,0,17.54-2.09,17.54-7.56c0-4.75-7.52-6.7-17.65-7.42c-15.58-1.22-29.96-3.96-29.96-15.27
		c0-10.37,15.47-14.62,29.53-14.69c11.88,0,24.19,2.23,29.96,10.01L1168.78,519.35z"/>
</g>
<path d="M371.52,406.74"/>
<path d="M371.26,364.48"/>
<path d="M371.26,364.48"/>
<path class="st1" d="M1197.62,188.32c-18.8,54.36-37.6,108.71-56.4,163.07c-18.76-53.42-37.51-106.84-56.27-160.25
	c-30.68,0-61.36,0-92.04,0c-19.57,53.16-39.13,106.31-58.7,159.47c-19.57-54-39.13-108-58.7-162
	c-175.91,0.87-351.83,1.74-527.74,2.61c-15.32,2.07-44.81,8.2-73.57,29.74c-9.79,7.33-58.75,43.99-61.02,108.2
	c-2.32,65.48,45.8,106.07,53.72,112.5c29.77,24.19,63.66,30.59,76.17,32.35c6,0.84,19.73,1.09,46.96,1.57
	c17.61,0.3,37.18,0.63,65.74,0.52c23.33-0.09,52.79-0.47,87.13-1.57c0.17-58.09,0.35-116.17,0.52-174.26c-57.3,0-114.61,0-171.91,0
	v65.22h102.64v42.26H371.52l0,0c-5.28,0.39-36.06,2.15-61.15-21.02c-3.12-2.88-25.33-24.63-25.33-53.82
	c0-41.34,37.46-74.96,84.14-76.06c0-0.05,0-0.1-0.01-0.15c88.04-0.39,176.09-0.78,264.13-1.17c0.13,73.17,0.26,146.35,0.39,219.52
	c28.7,0.17,57.39,0.35,86.09,0.52c-0.26-73.35-0.52-146.7-0.78-220.04c30.35-0.04,60.7-0.09,91.04-0.13
	c26.52,73.74,53.04,147.48,79.57,221.22c29.74-0.26,59.48-0.52,89.22-0.78c19.88-54.05,39.77-108.11,59.65-162.16
	c19.38,54.05,38.75,108.11,58.13,162.16c30,0.13,60,0.26,90,0.39c34.39-95.97,68.77-191.93,103.16-287.9
	C1259.05,188.32,1228.33,188.32,1197.62,188.32z"/>
<path class="st0" d="M889.61,476.61c29.74-0.26,59.48-0.52,89.22-0.78c35.38-94.9,70.75-189.79,106.13-284.69h-94.36
	C956.93,286.29,923.27,381.45,889.61,476.61z"/>
<path class="st0" d="M1096.61,475.83c30,0.13,60,0.26,90,0.39c34.72-95.97,69.44-191.93,104.16-287.9h-94.36
	C1163.14,284.16,1129.87,379.99,1096.61,475.83z"/>
<path class="st2" d="M732.7,442.35"/>
<g>
	<path class="st2" d="M716.78,317.07c0-3.35-2.72-6.07-6.07-6.07s-6.07,2.72-6.07,6.07c0,2.88,2.01,5.28,4.7,5.9v152.55h2.87V322.94
		C714.84,322.27,716.78,319.9,716.78,317.07z M710.72,320.1c-1.67,0-3.03-1.36-3.03-3.03s1.36-3.03,3.03-3.03s3.03,1.36,3.03,3.03
		S712.39,320.1,710.72,320.1z"/>
	<path class="st2" d="M698.62,341.85c-3.35,0-6.07,2.72-6.07,6.07c0,2.85,1.97,5.24,4.63,5.89v121.94h2.87V353.8
		c2.66-0.65,4.63-3.03,4.63-5.89C704.68,344.56,701.97,341.85,698.62,341.85z M698.62,350.95c-1.67,0-3.03-1.36-3.03-3.03
		s1.36-3.03,3.03-3.03s3.03,1.36,3.03,3.03S700.29,350.95,698.62,350.95z"/>
	<path class="st2" d="M675.6,343.01c-3.35,0-6.07,2.72-6.07,6.07c0,2.85,1.97,5.24,4.63,5.89v120.78h2.87V354.96
		c2.66-0.65,4.63-3.03,4.63-5.89C681.67,345.73,678.95,343.01,675.6,343.01z M675.6,352.11c-1.67,0-3.03-1.36-3.03-3.03
		s1.36-3.03,3.03-3.03s3.03,1.36,3.03,3.03S677.27,352.11,675.6,352.11z"/>
	<path class="st2" d="M650.61,344.9c0-3.36-2.72-6.08-6.07-6.08s-6.07,2.72-6.07,6.08c0,2.78,1.87,5.13,4.41,5.85v124.77h2.87
		V350.86C648.53,350.29,650.61,347.84,650.61,344.9z M644.54,347.91c-1.67,0-3.03-1.36-3.03-3.03s1.36-3.03,3.03-3.03
		s3.03,1.36,3.03,3.03S646.22,347.91,644.54,347.91z"/>
	<path class="st2" d="M687.9,375.97c-3.35,0-6.07,2.72-6.07,6.07c0,2.93,2.08,5.37,4.84,5.94v87.77h2.87v-87.88
		c2.55-0.72,4.42-3.05,4.42-5.83C693.97,378.68,691.25,375.97,687.9,375.97z M687.9,385.07c-1.67,0-3.03-1.36-3.03-3.03
		s1.36-3.03,3.03-3.03s3.03,1.36,3.03,3.03S689.58,385.07,687.9,385.07z"/>
	<path class="st2" d="M665.89,397.87c-3.35,0-6.07,2.72-6.07,6.07c0,2.85,1.97,5.24,4.63,5.89v25.62c-2.69,2.23-5.38,4.46-8.07,6.7
		v33.61h2.87v-33.61c2.69-2.23,5.38-4.46,8.07-6.7v-25.62c2.66-0.65,4.63-3.03,4.63-5.89C671.96,400.58,669.24,397.87,665.89,397.87
		z M665.89,406.96c-1.67,0-3.03-1.36-3.03-3.03s1.36-3.03,3.03-3.03s3.03,1.36,3.03,3.03S667.57,406.96,665.89,406.96z"/>
	<path class="st2" d="M666.33,333.71C666.33,333.71,666.33,333.71,666.33,333.71c2.65-0.65,4.62-3.03,4.62-5.89
		c0-3.35-2.72-6.07-6.07-6.07s-6.07,2.72-6.07,6.07c0,3.01,2.19,5.5,5.06,5.98c0,0,0,0-0.01,0c-0.12,16.06-0.23,32.12-0.35,48.19
		l-12.97,10.23v83.55h2.87v-83.55c4.27-3.4,8.55-6.79,12.82-10.19C666.28,365.93,666.31,349.82,666.33,333.71z M661.86,327.83
		c0-1.67,1.36-3.03,3.03-3.03s3.03,1.36,3.03,3.03s-1.36,3.03-3.03,3.03S661.86,329.5,661.86,327.83z"/>
</g>
<path class="st0" d="M52.87,281.26"/>
</svg>
